<svg xmlns="http://www.w3.org/2000/svg" viewBox="0, 0, 890.54, 345.45" font-family="SauceCodePro Nerd Font, Source Code Pro, Courier" font-size="14"><g fill="#D3D3D3"><rect x="0" y="0" width="890.54" height="345.45" fill="#000000"/><path d="M0,35.5146875 L134.421875,35.5146875 Z" stroke="#D3D3D3"/><text x="0" y="33.55" font-weight="bold">es-file-traverse</text><text x="16.8" y="71.55">  Facilities for traversing JavaScript files </text><path d="M0,111.5146875 L58.8095703125,111.5146875 Z" stroke="#D3D3D3"/><text x="0" y="109.55" font-weight="bold">Options</text><text x="16.8" y="147.55" font-weight="bold">-f</text><text x="33.61" y="147.55">, </text><text x="50.41" y="147.55" font-weight="bold">--file</text><path d="M109.2177734375,149.5146875 L184.830078125,149.5146875 Z" stroke="#D3D3D3"/><text x="109.22" y="147.55">file-path</text><text x="235.24" y="147.55">      File entry glob to process for beginning traversal. Required.                 </text><text x="16.8" y="166.55" font-weight="bold">--callback</text><path d="M109.2177734375,168.5146875 L210.0341796875,168.5146875 Z" stroke="#D3D3D3"/><text x="109.22" y="166.55">require path</text><text x="235.24" y="166.55">   Require path to be passed intermediate AST. Passed &#x22;enter&#x22; or &#x22;exit&#x22; and an   </text><text x="235.24" y="185.55">                            object with &#x60;fullPath&#x60;, &#x60;text&#x60;, and &#x60;ast&#x60; (and in &#x22;exit&#x22; mode, also &#x22;proms&#x22;   </text><text x="235.24" y="204.55">                            with array of traversal Promises and &#x60;resolvedSet&#x60; with resolved imports for  </text><text x="235.24" y="223.55">                            that file). Default is none.                                                  </text><text x="16.8" y="242.55" font-weight="bold">--serial</text><text x="235.24" y="242.55">                  Whether to iterate serially and ensure consistent order in visiting files.    </text><text x="235.24" y="261.55">                            Default is &#x60;false&#x60; as less performant.                                        </text><text x="16.8" y="280.55" font-weight="bold">--cwd</text><path d="M67.2109375,282.5146875 L100.81640625,282.5146875 Z" stroke="#D3D3D3"/><text x="67.21" y="280.55">path</text><text x="16.8" y="299.55" font-weight="bold">-v</text><text x="33.61" y="299.55">, </text><text x="50.41" y="299.55" font-weight="bold">--version</text><text x="16.8" y="318.55" font-weight="bold">-h</text><text x="33.61" y="318.55">, </text><text x="50.41" y="318.55" font-weight="bold">--help</text></g></svg>